<?xml version="1.0" encoding="UTF-8" standalone="no"?>
<svg
   xmlns:dc="http://purl.org/dc/elements/1.1/"
   xmlns:cc="http://creativecommons.org/ns#"
   xmlns:rdf="http://www.w3.org/1999/02/22-rdf-syntax-ns#"
   xmlns:svg="http://www.w3.org/2000/svg"
   xmlns="http://www.w3.org/2000/svg"
   version="1.1"
   id="Layer_1"
   x="0px"
   y="0px"
   viewBox="0 0 122.8 122.8"
   xml:space="preserve"
   width="122.8"
   height="122.8"><metadata
   id="metadata35"><rdf:RDF><cc:Work
       rdf:about=""><dc:format>image/svg+xml</dc:format><dc:type
         rdf:resource="http://purl.org/dc/dcmitype/StillImage" /><dc:title></dc:title></cc:Work></rdf:RDF></metadata><defs
   id="defs33" />
<style
   type="text/css"
   id="style2">
	.st0{fill:#E01E5A;}
	.st1{fill:#36C5F0;}
	.st2{fill:#2EB67D;}
	.st3{fill:#ECB22E;}
</style>
<g
   id="g28"
   transform="translate(-73.6,-73.6)">
	<g
   id="g8">
		<path
   class="st0"
   d="m 99.4,151.2 c 0,7.1 -5.8,12.9 -12.9,12.9 -7.1,0 -12.9,-5.8 -12.9,-12.9 0,-7.1 5.8,-12.9 12.9,-12.9 h 12.9 z"
   id="path4" />
		<path
   class="st0"
   d="m 105.9,151.2 c 0,-7.1 5.8,-12.9 12.9,-12.9 7.1,0 12.9,5.8 12.9,12.9 v 32.3 c 0,7.1 -5.8,12.9 -12.9,12.9 -7.1,0 -12.9,-5.8 -12.9,-12.9 z"
   id="path6" />
	</g>
	<g
   id="g14">
		<path
   class="st1"
   d="m 118.8,99.4 c -7.1,0 -12.9,-5.8 -12.9,-12.9 0,-7.1 5.8,-12.9 12.9,-12.9 7.1,0 12.9,5.8 12.9,12.9 v 12.9 z"
   id="path10" />
		<path
   class="st1"
   d="m 118.8,105.9 c 7.1,0 12.9,5.8 12.9,12.9 0,7.1 -5.8,12.9 -12.9,12.9 H 86.5 c -7.1,0 -12.9,-5.8 -12.9,-12.9 0,-7.1 5.8,-12.9 12.9,-12.9 z"
   id="path12" />
	</g>
	<g
   id="g20">
		<path
   class="st2"
   d="m 170.6,118.8 c 0,-7.1 5.8,-12.9 12.9,-12.9 7.1,0 12.9,5.8 12.9,12.9 0,7.1 -5.8,12.9 -12.9,12.9 h -12.9 z"
   id="path16" />
		<path
   class="st2"
   d="m 164.1,118.8 c 0,7.1 -5.8,12.9 -12.9,12.9 -7.1,0 -12.9,-5.8 -12.9,-12.9 V 86.5 c 0,-7.1 5.8,-12.9 12.9,-12.9 7.1,0 12.9,5.8 12.9,12.9 z"
   id="path18" />
	</g>
	<g
   id="g26">
		<path
   class="st3"
   d="m 151.2,170.6 c 7.1,0 12.9,5.8 12.9,12.9 0,7.1 -5.8,12.9 -12.9,12.9 -7.1,0 -12.9,-5.8 -12.9,-12.9 v -12.9 z"
   id="path22" />
		<path
   class="st3"
   d="m 151.2,164.1 c -7.1,0 -12.9,-5.8 -12.9,-12.9 0,-7.1 5.8,-12.9 12.9,-12.9 h 32.3 c 7.1,0 12.9,5.8 12.9,12.9 0,7.1 -5.8,12.9 -12.9,12.9 z"
   id="path24" />
	</g>
</g>
</svg>
